<svg width="145" height="93" viewBox="0 0 145 93" fill="none" xmlns="http://www.w3.org/2000/svg">
<path d="M86.538 0H82.9994V14.2148C72.4848 5.09907 59.0535 0 45.0357 0H41.4972V30.9586C38.1457 29.7377 34.597 29.1016 30.9978 29.1016C13.9065 29.1016 0 43.2138 0 60.5579C0 77.9019 13.9065 92.0192 30.9978 92.0192C38.7169 92.0192 46.0922 89.1003 51.7489 83.9192C57.4106 89.1003 64.7859 92.0192 72.5 92.0192C80.2141 92.0192 87.5894 89.1003 93.2511 83.9243C98.9128 89.1055 106.288 92.0192 114.002 92.0192C131.093 92.0192 145 77.907 145 60.5579V59.3318C145 26.6137 118.774 0 86.538 0ZM7.08217 60.5579C7.08217 47.1741 17.8141 36.2834 31.0028 36.2834C35.3199 36.2834 39.5459 37.4582 43.2311 39.6845C50.4447 44.0449 54.9285 52.0423 54.9285 60.5579C54.9285 61.2914 54.8982 62.0199 54.8325 62.738C54.792 63.169 54.7415 63.5947 54.6808 64.0205C54.0287 68.6066 52.1027 72.9362 49.0798 76.4604C44.5353 81.78 37.9485 84.8323 31.0028 84.8323C17.8141 84.8323 7.08217 73.9416 7.08217 60.5527V60.5579ZM56.44 78.5482C56.5462 78.3943 56.6473 78.2302 56.7534 78.0763C56.8394 77.948 56.9253 77.8198 57.0112 77.6864C57.1983 77.3992 57.3752 77.1068 57.5471 76.8143C57.5926 76.7323 57.6431 76.6553 57.6937 76.5784C57.911 76.2039 58.1233 75.8192 58.3255 75.4344C58.3761 75.337 58.4216 75.2395 58.4721 75.142C58.6238 74.8496 58.7704 74.5572 58.9119 74.2648C58.9777 74.1263 59.0383 73.9878 59.104 73.8493C59.2203 73.5928 59.3416 73.3312 59.4528 73.0696C59.5186 72.9208 59.5792 72.7669 59.6399 72.6181C59.746 72.3616 59.8471 72.1 59.9432 71.8384C59.9988 71.6896 60.0594 71.5357 60.11 71.387C60.2111 71.11 60.3071 70.8329 60.3981 70.5508C60.4436 70.4174 60.4891 70.284 60.5296 70.1455C60.6458 69.7762 60.752 69.4068 60.8581 69.0375C60.8733 68.9913 60.8885 68.9452 60.8986 68.8939C61.0149 68.4732 61.116 68.0474 61.212 67.6217C61.2373 67.4986 61.2626 67.3754 61.2878 67.2523C61.3535 66.9497 61.4142 66.6419 61.4698 66.3341C61.5001 66.175 61.5254 66.0211 61.5507 65.8621C61.5962 65.5851 61.6417 65.3081 61.6821 65.0311C61.7074 64.8669 61.7276 64.6976 61.7478 64.5335C61.7832 64.2565 61.8136 63.9795 61.8388 63.7025C61.854 63.5383 61.8742 63.3741 61.8843 63.21C61.9096 62.9125 61.9298 62.6098 61.945 62.3123C61.9551 62.1686 61.9652 62.0301 61.9703 61.8865C61.9905 61.4453 62.0006 61.0042 62.0006 60.563C62.0006 60.2296 61.9955 59.8961 61.9854 59.5627C61.9854 59.4498 61.9753 59.3421 61.9703 59.2292C61.9602 59.0086 61.95 58.7881 61.9399 58.5675C61.9298 58.4341 61.9197 58.3007 61.9096 58.1674C61.8944 57.9673 61.8793 57.7724 61.8591 57.5723C61.8439 57.4287 61.8287 57.2901 61.8136 57.1465C61.7933 56.9618 61.7731 56.772 61.7478 56.5874C61.7276 56.4386 61.7074 56.295 61.6872 56.1462C61.6619 55.9667 61.6366 55.7871 61.6063 55.6076C61.581 55.4588 61.5558 55.31 61.5305 55.1613C61.5001 54.9868 61.4698 54.8073 61.4344 54.6329C61.4041 54.4841 61.3738 54.3354 61.3434 54.1815C61.308 54.007 61.2727 53.8378 61.2322 53.6685C61.1968 53.5197 61.1615 53.3709 61.1261 53.217C61.0856 53.0478 61.0452 52.8785 60.9997 52.7092C60.9592 52.5604 60.9239 52.4117 60.8834 52.2629C60.8379 52.0936 60.7924 51.9295 60.7419 51.7653C60.6964 51.6165 60.6559 51.4678 60.6104 51.319C60.5599 51.1549 60.5093 50.9907 60.4537 50.8265C60.4082 50.6778 60.3577 50.529 60.3071 50.3854C60.2515 50.2212 60.1959 50.0622 60.1353 49.898C60.0847 49.7544 60.0342 49.6056 59.9786 49.462C59.9179 49.2978 59.8522 49.1388 59.7915 48.9798C59.7359 48.8362 59.6803 48.6925 59.6247 48.554C59.559 48.3899 59.4882 48.2308 59.4225 48.0718C59.3618 47.9333 59.3062 47.7948 59.2456 47.6563C59.1698 47.4921 59.0939 47.328 59.0181 47.1638C58.9574 47.0356 58.8968 46.9022 58.8361 46.7688C58.73 46.5482 58.6187 46.3328 58.5075 46.1122C58.4165 45.9378 58.3256 45.7634 58.2346 45.5941C58.1385 45.4146 58.0425 45.235 57.9464 45.0606C57.8756 44.9323 57.7948 44.8041 57.724 44.6707C57.6381 44.5168 57.5521 44.3681 57.4611 44.2193C57.3802 44.0859 57.2994 43.9525 57.2134 43.8192C57.1224 43.6755 57.0365 43.5319 56.9455 43.3883C56.8596 43.2549 56.7736 43.1215 56.6826 42.9933C56.5917 42.8548 56.5007 42.7162 56.4046 42.5777C56.3136 42.4444 56.2226 42.3161 56.1316 42.1879C56.0356 42.0545 55.9396 41.916 55.8435 41.7826C55.7475 41.6544 55.6565 41.5261 55.5604 41.403C55.4593 41.2696 55.3582 41.1363 55.2571 41.008C55.1611 40.8849 55.06 40.7566 54.9589 40.6335C54.8527 40.5053 54.7516 40.377 54.6404 40.2488C54.5393 40.1257 54.4382 40.0077 54.3371 39.8897C54.2259 39.7615 54.1147 39.6332 54.0034 39.5101C53.9023 39.3921 53.7962 39.2793 53.69 39.1613C53.5738 39.033 53.4575 38.9099 53.3412 38.7868C53.2351 38.6739 53.1289 38.5611 53.0228 38.4533C52.9014 38.3302 52.7801 38.2071 52.6537 38.084C52.5476 37.9763 52.4414 37.8685 52.3302 37.7659C52.1988 37.6428 52.0674 37.5197 51.941 37.3966C51.8348 37.2991 51.7287 37.1965 51.6225 37.0991C51.486 36.9708 51.3445 36.8477 51.2029 36.7246C51.0968 36.6323 50.9957 36.5399 50.8895 36.4527C50.7328 36.3193 50.5761 36.1911 50.4143 36.0628C50.3183 35.9859 50.2273 35.9089 50.1313 35.832C49.9341 35.6781 49.737 35.5242 49.5398 35.3703C49.4792 35.3241 49.4185 35.2728 49.3578 35.2267C49.095 35.0317 48.8321 34.8419 48.5642 34.6521V7.31516C62.1522 8.26418 74.8557 14.656 83.8537 25.1824C91.952 34.6521 96.4156 46.7842 96.4156 59.3421V60.5681C96.4156 61.3017 96.3853 62.0301 96.3196 62.7483C96.2791 63.1792 96.2286 63.605 96.1679 64.0308C95.5158 68.6169 93.5898 72.9413 90.5719 76.4706C86.0274 81.7954 79.4406 84.8477 72.4949 84.8477C66.5198 84.8477 60.8076 82.5854 56.4299 78.5585L56.44 78.5482ZM137.928 60.5579C137.928 73.9468 127.196 84.8374 114.007 84.8374C108.032 84.8374 102.315 82.5752 97.9422 78.5482C98.0585 78.3841 98.1647 78.2148 98.2759 78.0455C98.3517 77.9275 98.4326 77.8147 98.5084 77.6967C98.7056 77.3889 98.8977 77.0708 99.0847 76.7579C99.1201 76.7015 99.1555 76.6451 99.1908 76.5835C99.4133 76.2039 99.6256 75.814 99.8328 75.4242C99.8733 75.3421 99.9137 75.26 99.9542 75.1831C100.111 74.8753 100.268 74.5675 100.414 74.2546C100.475 74.1263 100.535 73.9981 100.591 73.8647C100.712 73.5979 100.834 73.3261 100.95 73.0542C101.011 72.9105 101.071 72.7669 101.132 72.6233C101.238 72.3565 101.344 72.0898 101.445 71.823C101.501 71.6794 101.557 71.5357 101.607 71.387C101.708 71.0997 101.809 70.8176 101.9 70.5252C101.941 70.3969 101.986 70.2687 102.027 70.1404C102.148 69.7608 102.259 69.3812 102.365 68.9965C102.376 68.9606 102.386 68.9195 102.396 68.8836C102.512 68.4578 102.613 68.0321 102.714 67.6063C102.74 67.4883 102.765 67.3703 102.79 67.2523C102.856 66.9445 102.921 66.6367 102.977 66.3238C103.007 66.1699 103.033 66.0109 103.058 65.857C103.103 65.58 103.149 65.2978 103.189 65.0208C103.215 64.8567 103.235 64.6874 103.255 64.5232C103.291 64.2462 103.321 63.9692 103.346 63.6922C103.361 63.528 103.382 63.3639 103.392 63.1997C103.417 62.9022 103.437 62.5995 103.452 62.302C103.462 62.1635 103.472 62.0199 103.478 61.8814C103.498 61.4402 103.508 60.999 103.508 60.5579V59.3318C103.508 58.4905 103.488 57.6544 103.452 56.8182C103.452 56.7874 103.452 56.7515 103.452 56.7207C103.417 55.9102 103.361 55.0997 103.296 54.2943C103.296 54.2379 103.285 54.1763 103.28 54.1199C103.21 53.335 103.129 52.5502 103.028 51.7653C103.018 51.6884 103.007 51.6114 103.002 51.5396C102.901 50.7701 102.785 50.0058 102.659 49.2465C102.643 49.1593 102.628 49.0721 102.613 48.9849C102.482 48.236 102.335 47.487 102.178 46.7432C102.158 46.6457 102.138 46.5534 102.118 46.4559C101.956 45.7172 101.779 44.9836 101.592 44.2552C101.567 44.1577 101.541 44.0551 101.516 43.9577C101.324 43.2344 101.117 42.5111 100.899 41.798C100.869 41.6954 100.839 41.5928 100.808 41.4953C100.586 40.7823 100.354 40.0744 100.106 39.3665C100.07 39.2639 100.035 39.1664 99.9997 39.0689C99.7469 38.3661 99.484 37.6685 99.206 36.9708C99.1656 36.8734 99.1302 36.781 99.0897 36.6835C98.8066 35.991 98.5135 35.2985 98.2051 34.6162C98.1646 34.5239 98.1242 34.4367 98.0787 34.3443C97.7653 33.6569 97.4367 32.9747 97.098 32.3027C97.0576 32.2206 97.0121 32.1385 96.9716 32.0564C96.6228 31.3793 96.264 30.7021 95.8949 30.0353C95.8545 29.9634 95.814 29.8916 95.7736 29.8198C95.3945 29.1478 95.0002 28.4758 94.5907 27.8192C94.5553 27.7627 94.5149 27.7012 94.4795 27.6448C94.0599 26.9727 93.6302 26.311 93.1854 25.6544C93.1551 25.6133 93.1247 25.5723 93.0995 25.5261C92.6445 24.8592 92.1744 24.1975 91.6891 23.546C91.6739 23.5255 91.6537 23.505 91.6385 23.4793C91.1432 22.8176 90.6376 22.1712 90.117 21.53C90.1119 21.5197 90.1018 21.5146 90.0967 21.5043V7.31003C116.788 9.16191 137.943 31.7897 137.943 59.337V60.563L137.928 60.5579Z" fill="#2C2E41"/>
</svg>
