<svg width="262" height="44" viewBox="0 0 262 44" fill="none" xmlns="http://www.w3.org/2000/svg">
<path d="M111.816 15.2738L107.977 28.3998H104.399L102.006 19.2321L99.6133 28.3998H96.0125L92.1501 15.2738H95.516L97.8394 25.2722L100.351 15.2738H103.856L106.322 25.249L108.645 15.2738H111.819H111.816Z" fill="#011B60"/>
<path d="M125.488 22.76H115.893C115.956 23.7231 116.281 24.481 116.863 25.0337C117.449 25.5865 118.174 25.8645 119.044 25.8645C120.275 25.8645 121.152 25.3349 121.675 24.2758H125.253C124.876 25.5401 124.148 26.5793 123.072 27.3902C121.996 28.2044 120.679 28.6114 119.117 28.6114C117.853 28.6114 116.721 28.3301 115.718 27.7708C114.715 27.2115 113.934 26.4172 113.371 25.3912C112.812 24.3652 112.531 23.1804 112.531 21.8367C112.531 20.4929 112.805 19.2849 113.361 18.259C113.914 17.233 114.689 16.442 115.685 15.8893C116.681 15.3366 117.826 15.0585 119.12 15.0585C120.414 15.0585 121.487 15.3266 122.473 15.8628C123.459 16.3989 124.227 17.1568 124.77 18.1365C125.316 19.1161 125.587 20.2447 125.587 21.5255C125.587 21.969 125.554 22.3794 125.491 22.7567L125.488 22.76ZM122.149 20.7478C122.132 19.831 121.827 19.1095 121.235 18.58C120.643 18.0504 119.905 17.7857 119.021 17.7857C118.184 17.7857 117.482 18.0504 116.913 18.58C116.343 19.1095 116.006 19.831 115.893 20.7478H122.149Z" fill="#011B60"/>
<path d="M127.703 18.259C128.232 17.233 128.95 16.442 129.857 15.8893C130.764 15.3366 131.78 15.0585 132.902 15.0585C133.882 15.0585 134.739 15.2571 135.474 15.651C136.208 16.0448 136.797 16.5446 137.238 17.1436V15.2704H140.577V28.3963H137.238V26.4767C136.811 27.0923 136.221 27.602 135.474 28.0058C134.722 28.4096 133.858 28.6114 132.879 28.6114C131.773 28.6114 130.767 28.3268 129.857 27.7576C128.95 27.1883 128.229 26.3874 127.703 25.3515C127.173 24.3156 126.908 23.1274 126.908 21.787C126.908 20.4466 127.173 19.2849 127.703 18.2556V18.259ZM136.764 19.7648C136.447 19.189 136.023 18.7455 135.483 18.4377C134.947 18.1299 134.371 17.9743 133.752 17.9743C133.134 17.9743 132.568 18.1233 132.048 18.4244C131.528 18.7256 131.105 19.1625 130.78 19.7384C130.456 20.3142 130.294 20.9993 130.294 21.787C130.294 22.5747 130.456 23.2664 130.78 23.8588C131.105 24.4513 131.532 24.9047 132.061 25.2224C132.591 25.5401 133.153 25.6957 133.756 25.6957C134.358 25.6957 134.947 25.5401 135.487 25.2323C136.023 24.9245 136.45 24.481 136.768 23.9052C137.082 23.3293 137.241 22.6376 137.241 21.8333C137.241 21.0291 137.082 20.3374 136.768 19.7615L136.764 19.7648Z" fill="#011B60"/>
<path d="M147.451 18.0008V24.3487C147.451 24.7922 147.557 25.1099 147.772 25.3085C147.984 25.507 148.344 25.603 148.851 25.603H150.39V28.3997H148.305C145.508 28.3997 144.111 27.0427 144.111 24.3255V18.0008H142.549V15.277H144.111V12.0303H147.451V15.277H150.39V18.0008H147.451Z" fill="#011B60"/>
<path d="M162.589 15.7373C163.363 16.1709 163.966 16.8129 164.402 17.6569C164.836 18.5008 165.054 19.5169 165.054 20.7017V28.3999H161.738V21.1518C161.738 20.1093 161.477 19.3084 160.957 18.7457C160.438 18.1864 159.726 17.9051 158.826 17.9051C157.925 17.9051 157.187 18.1864 156.658 18.7457C156.128 19.3051 155.864 20.1093 155.864 21.1518V28.3999H152.547V10.8688H155.864V16.9089C156.291 16.3397 156.86 15.8929 157.568 15.5718C158.28 15.2475 159.067 15.0853 159.938 15.0853C160.934 15.0853 161.818 15.3037 162.592 15.7373H162.589Z" fill="#011B60"/>
<path d="M180.074 22.76H170.479C170.542 23.7231 170.866 24.481 171.449 25.0337C172.035 25.5865 172.76 25.8645 173.63 25.8645C174.861 25.8645 175.738 25.3349 176.261 24.2758H179.839C179.462 25.5401 178.733 26.5793 177.658 27.3902C176.582 28.2044 175.265 28.6114 173.703 28.6114C172.439 28.6114 171.307 28.3301 170.304 27.7708C169.301 27.2115 168.52 26.4172 167.957 25.3912C167.398 24.3652 167.117 23.1804 167.117 21.8367C167.117 20.4929 167.391 19.2849 167.947 18.259C168.5 17.233 169.275 16.442 170.271 15.8893C171.267 15.3366 172.412 15.0585 173.706 15.0585C175 15.0585 176.073 15.3266 177.059 15.8628C178.045 16.3989 178.813 17.1568 179.356 18.1365C179.902 19.1161 180.173 20.2447 180.173 21.5255C180.173 21.969 180.14 22.3794 180.077 22.7567L180.074 22.76ZM176.734 20.7478C176.718 19.831 176.413 19.1095 175.821 18.58C175.229 18.0504 174.491 17.7857 173.607 17.7857C172.77 17.7857 172.068 18.0504 171.499 18.58C170.929 19.1095 170.592 19.831 170.479 20.7478H176.734Z" fill="#011B60"/>
<path d="M187.332 15.7506C188.02 15.3071 188.804 15.0887 189.688 15.0887V18.5704H188.811C187.768 18.5704 186.984 18.8153 186.455 19.3051C185.925 19.795 185.66 20.6488 185.66 21.8635V28.4033H182.344V15.274H185.66V17.5974C186.087 16.8064 186.643 16.1908 187.332 15.7506Z" fill="#011B60"/>
<path d="M209.877 15.2738L206.038 28.3998H202.46L200.067 19.2321L197.674 28.3998H194.074L190.211 15.2738H193.577L195.9 25.2722L198.412 15.2738H201.917L204.383 25.249L206.706 15.2738H209.88H209.877Z" fill="#011B60"/>
<path d="M211.38 18.259C211.909 17.233 212.627 16.442 213.534 15.8893C214.441 15.3366 215.457 15.0585 216.579 15.0585C217.559 15.0585 218.416 15.2571 219.151 15.651C219.885 16.0448 220.474 16.5446 220.915 17.1436V15.2704H224.254V28.3963H220.915V26.4767C220.488 27.0923 219.898 27.602 219.151 28.0058C218.399 28.4096 217.535 28.6114 216.556 28.6114C215.45 28.6114 214.444 28.3268 213.534 27.7576C212.627 27.1883 211.906 26.3874 211.38 25.3515C210.85 24.3156 210.585 23.1274 210.585 21.787C210.585 20.4466 210.85 19.2849 211.38 18.2556V18.259ZM220.441 19.7648C220.124 19.189 219.7 18.7455 219.16 18.4377C218.624 18.1299 218.048 17.9743 217.43 17.9743C216.811 17.9743 216.245 18.1233 215.725 18.4244C215.205 18.7256 214.782 19.1625 214.457 19.7384C214.133 20.3142 213.971 20.9993 213.971 21.787C213.971 22.5747 214.133 23.2664 214.457 23.8588C214.782 24.4513 215.209 24.9047 215.738 25.2224C216.268 25.5401 216.83 25.6957 217.433 25.6957C218.035 25.6957 218.624 25.5401 219.164 25.2323C219.7 24.9245 220.127 24.481 220.445 23.9052C220.759 23.3293 220.918 22.6376 220.918 21.8333C220.918 21.0291 220.759 20.3374 220.445 19.7615L220.441 19.7648Z" fill="#011B60"/>
<path d="M230.582 10.8688V28.3999H227.266V10.8688H230.582Z" fill="#011B60"/>
<path d="M233.554 18.259C234.083 17.233 234.801 16.442 235.708 15.8893C236.615 15.3366 237.631 15.0585 238.753 15.0585C239.733 15.0585 240.59 15.2571 241.325 15.651C242.059 16.0448 242.649 16.5446 243.089 17.1436V15.2704H246.428V28.3963H243.089V26.4767C242.662 27.0923 242.073 27.602 241.325 28.0058C240.573 28.4096 239.71 28.6114 238.73 28.6114C237.625 28.6114 236.618 28.3268 235.708 27.7576C234.801 27.1883 234.08 26.3874 233.554 25.3515C233.024 24.3156 232.759 23.1274 232.759 21.787C232.759 20.4466 233.024 19.2849 233.554 18.2556V18.259ZM242.615 19.7648C242.298 19.189 241.874 18.7455 241.335 18.4377C240.798 18.1299 240.223 17.9743 239.604 17.9743C238.985 17.9743 238.419 18.1233 237.899 18.4244C237.38 18.7256 236.956 19.1625 236.632 19.7384C236.307 20.3142 236.145 20.9993 236.145 21.787C236.145 22.5747 236.307 23.2664 236.632 23.8588C236.956 24.4513 237.383 24.9047 237.912 25.2224C238.442 25.5401 239.005 25.6957 239.607 25.6957C240.209 25.6957 240.798 25.5401 241.338 25.2323C241.874 24.9245 242.301 24.481 242.619 23.9052C242.933 23.3293 243.092 22.6376 243.092 21.8333C243.092 21.0291 242.933 20.3374 242.619 19.7615L242.615 19.7648Z" fill="#011B60"/>
<path d="M251.644 15.2738L255.033 24.4415L258.469 15.2738H262L253.875 34.6053H250.344L253.186 28.0655L247.927 15.2705H251.648L251.644 15.2738Z" fill="#011B60"/>
<path d="M57.1871 43.9966C49.3334 43.9966 42.969 37.6321 42.969 29.7784V0.716621C58.6732 0.716621 71.4053 13.4487 71.4053 29.1529V29.7817C71.4053 37.6355 65.0409 43.9999 57.1871 43.9999V43.9966Z" fill="#397DFF"/>
<path d="M35.7037 43.9966C27.85 43.9966 21.4856 37.6321 21.4856 29.7784V0.716621C37.1898 0.716621 49.9219 13.4487 49.9219 29.1529V29.7817C49.9219 37.6355 43.5575 43.9999 35.7037 43.9999V43.9966Z" fill="#0952DF"/>
<path d="M14.2181 43.9964C22.0706 43.9964 28.4363 37.6307 28.4363 29.7783C28.4363 21.9258 22.0706 15.5602 14.2181 15.5602C6.36568 15.5602 0 21.9258 0 29.7783C0 37.6307 6.36568 43.9964 14.2181 43.9964Z" fill="#FFB000"/>
</svg>
